<svg width="2159" height="598" viewBox="0 0 2159 598" fill="none" xmlns="http://www.w3.org/2000/svg">
<rect y="43" width="512" height="512" rx="80" fill="#1F2937"/>
<path d="M156 399H289.333" stroke="white" stroke-width="30" stroke-linecap="round" stroke-linejoin="round"/>
<path d="M106 465.667H406" stroke="white" stroke-width="30" stroke-linecap="round" stroke-linejoin="round"/>
<path d="M289.333 465.666C320.275 465.666 349.95 453.375 371.829 431.495C393.708 409.616 406 379.942 406 349C406 318.058 393.708 288.383 371.829 266.504C349.95 244.625 320.275 232.333 289.333 232.333H272.667" stroke="white" stroke-width="30" stroke-linecap="round" stroke-linejoin="round"/>
<path d="M206 332.333H239.333" stroke="white" stroke-width="30" stroke-linecap="round" stroke-linejoin="round"/>
<path d="M206 299C197.159 299 188.681 295.488 182.43 289.237C176.179 282.986 172.667 274.507 172.667 265.667V199H272.667V265.667C272.667 274.507 269.155 282.986 262.904 289.237C256.652 295.488 248.174 299 239.333 299H206Z" stroke="white" stroke-width="30" stroke-linecap="round" stroke-linejoin="round"/>
<path d="M256 199V149C256 144.579 254.244 140.34 251.118 137.215C247.993 134.089 243.754 132.333 239.333 132.333H206C201.58 132.333 197.341 134.089 194.215 137.215C191.089 140.34 189.333 144.579 189.333 149V199" stroke="white" stroke-width="30" stroke-linecap="round" stroke-linejoin="round"/>
<path d="M797.768 477.488C797.219 477.763 796.669 477.9 796.12 477.9C795.571 477.9 794.472 477.9 792.824 477.9C788.979 477.9 784.447 477.213 779.228 475.84C774.284 474.741 769.34 473.231 764.396 471.308C759.727 469.66 755.607 467.737 752.036 465.54C748.74 463.343 746.68 461.42 745.856 459.772C745.581 455.927 745.444 451.944 745.444 447.824C745.444 443.704 745.444 439.721 745.444 435.876C745.444 405.113 747.641 372.977 752.036 339.468C756.705 305.959 764.259 269.703 774.696 230.7C775.795 226.855 776.893 222.048 777.992 216.28C779.365 210.237 780.739 203.783 782.112 196.916C775.52 202.135 767.692 210.512 758.628 222.048C749.564 233.309 739.951 246.768 729.788 262.424C719.9 277.805 709.875 294.835 699.712 313.512C689.824 331.915 680.76 350.729 672.52 369.956C664.28 388.908 657.139 407.723 651.096 426.4C645.328 445.077 641.757 462.381 640.384 478.312C627.2 474.467 617.999 470.621 612.78 466.776C607.836 462.931 605.364 458.261 605.364 452.768C605.364 447.824 606.875 440.82 609.896 431.756C612.917 422.692 617.175 411.98 622.668 399.62C628.161 387.26 634.891 373.527 642.856 358.42C650.821 343.039 659.611 326.559 669.224 308.98C680.211 288.929 690.923 270.115 701.36 252.536C712.072 234.957 722.509 219.027 732.672 204.744C742.835 190.461 752.723 178.101 762.336 167.664C772.224 157.227 781.975 149.261 791.588 143.768C795.433 143.768 800.515 144.729 806.832 146.652C813.424 148.575 819.741 150.909 825.784 153.656C832.101 156.403 837.595 159.287 842.264 162.308C847.208 165.055 849.955 167.389 850.504 169.312C846.659 177.003 842.127 188.539 836.908 203.92C831.689 219.301 826.333 236.743 820.84 256.244C815.621 275.745 810.54 296.483 805.596 318.456C800.927 340.155 797.219 361.029 794.472 381.08C800.789 365.973 808.068 350.317 816.308 334.112C824.823 317.632 833.749 301.427 843.088 285.496C852.427 269.291 861.903 253.635 871.516 238.528C881.404 223.421 891.017 209.688 900.356 197.328C909.695 184.693 918.347 173.707 926.312 164.368C934.552 155.029 941.831 148.163 948.148 143.768C951.993 143.768 957.075 144.729 963.392 146.652C969.984 148.575 976.301 150.909 982.344 153.656C988.661 156.403 994.155 159.287 998.824 162.308C1003.77 165.055 1006.51 167.389 1007.06 169.312C998.275 184.968 990.584 204.057 983.992 226.58C977.4 249.103 971.769 272.724 967.1 297.444C962.705 322.164 959.272 346.747 956.8 371.192C954.603 395.363 953.504 417.061 953.504 436.288C953.504 442.605 953.504 449.197 953.504 456.064C953.504 462.931 953.779 470.072 954.328 477.488C950.483 477.488 945.813 476.939 940.32 475.84C935.101 475.016 929.883 473.78 924.664 472.132C919.72 470.484 915.188 468.561 911.068 466.364C906.948 464.441 904.064 462.244 902.416 459.772C902.141 455.927 902.004 451.944 902.004 447.824C902.004 443.704 902.004 439.721 902.004 435.876C902.004 405.113 904.201 372.977 908.596 339.468C913.265 305.959 920.819 269.703 931.256 230.7C932.355 226.855 933.591 221.636 934.964 215.044C936.337 208.452 937.711 201.585 939.084 194.444C931.393 198.289 922.604 205.705 912.716 216.692C903.103 227.404 893.215 240.588 883.052 256.244C873.164 271.625 863.276 288.792 853.388 307.744C843.775 326.696 834.985 346.06 827.02 365.836C819.329 385.337 812.737 404.839 807.244 424.34C802.025 443.567 798.867 461.283 797.768 477.488ZM1150.46 276.432C1149.36 293.461 1146.34 308.156 1141.39 320.516C1136.45 332.601 1129.31 343.313 1119.97 352.652C1110.9 361.716 1099.78 369.956 1086.6 377.372C1073.41 384.788 1058.03 391.929 1040.45 398.796C1040.45 400.444 1040.31 402.229 1040.04 404.152C1040.04 405.8 1040.04 407.585 1040.04 409.508C1040.04 413.079 1040.31 416.787 1040.86 420.632C1041.41 424.477 1042.37 428.048 1043.75 431.344C1045.12 434.64 1047.04 437.387 1049.52 439.584C1051.99 441.507 1055.15 442.468 1058.99 442.468C1066.41 442.468 1073.69 440.82 1080.83 437.524C1087.97 434.228 1094.7 430.245 1101.02 425.576C1107.61 420.632 1113.65 415.413 1119.14 409.92C1124.91 404.152 1129.99 398.933 1134.39 394.264C1137.13 396.736 1139.47 399.071 1141.39 401.268C1129.03 417.748 1115.44 431.481 1100.6 442.468C1086.05 453.18 1072.18 460.047 1058.99 463.068C1040.04 460.871 1025.21 454.004 1014.5 442.468C1004.06 430.657 998.84 416.512 998.84 400.032C998.84 388.771 1000.35 377.372 1003.37 365.836C1006.67 354.025 1011.06 342.764 1016.56 332.052C1022.32 321.065 1028.92 310.765 1036.33 301.152C1044.02 291.539 1052.13 283.161 1060.64 276.02C1069.43 268.879 1078.36 263.248 1087.42 259.128C1096.76 255.008 1105.96 252.948 1115.02 252.948C1127.66 254.596 1139.47 262.424 1150.46 276.432ZM1122.03 290.028C1114.61 291.127 1106.92 294.148 1098.96 299.092C1090.99 304.036 1083.44 310.628 1076.3 318.868C1069.43 327.108 1063.11 336.721 1057.34 347.708C1051.58 358.695 1047.04 370.505 1043.75 383.14C1065.72 372.153 1083.99 358.695 1098.54 342.764C1113.1 326.559 1120.93 308.98 1122.03 290.028ZM1259.35 254.596C1264.84 254.596 1271.16 256.244 1278.3 259.54C1285.44 262.836 1291.76 267.093 1297.25 272.312C1295.88 261.325 1294.09 251.025 1291.89 241.412C1289.97 231.524 1286.95 221.361 1282.83 210.924C1278.99 200.487 1273.77 189.088 1267.17 176.728C1260.58 164.368 1252.34 150.223 1242.45 134.292C1243.28 131.82 1245.06 128.936 1247.81 125.64C1250.83 122.344 1254.13 119.323 1257.7 116.576C1261.54 113.555 1265.39 110.945 1269.23 108.748C1273.35 106.551 1277.2 105.177 1280.77 104.628C1288.46 113.143 1295.74 123.855 1302.61 136.764C1309.47 149.399 1315.52 163.132 1320.73 177.964C1325.95 192.521 1329.94 207.628 1332.68 223.284C1335.7 238.94 1337.21 253.909 1337.21 268.192C1337.21 282.475 1335.57 297.169 1332.27 312.276C1329.25 327.383 1324.85 342.215 1319.09 356.772C1313.59 371.055 1307.14 384.651 1299.72 397.56C1292.31 410.469 1284.2 422.005 1275.41 432.168C1266.9 442.331 1257.97 450.571 1248.63 456.888C1239.3 463.48 1229.96 467.6 1220.62 469.248C1201.67 467.051 1187.11 460.871 1176.95 450.708C1167.06 440.82 1162.11 427.087 1162.11 409.508C1162.11 400.169 1163.49 390.007 1166.23 379.02C1169.26 368.033 1173.1 357.184 1177.77 346.472C1182.71 335.485 1188.35 324.911 1194.66 314.748C1201.25 304.311 1208.12 294.972 1215.26 286.732C1222.68 278.492 1230.09 271.488 1237.51 265.72C1244.93 259.952 1252.21 256.244 1259.35 254.596ZM1217.32 452.768C1226.94 449.472 1236.55 442.193 1246.16 430.932C1255.78 419.671 1264.43 406.487 1272.12 391.38C1279.81 375.999 1285.99 359.656 1290.66 342.352C1295.6 324.773 1298.07 307.881 1298.07 291.676C1298.07 287.007 1298.07 284.123 1298.07 283.024C1298.07 281.925 1297.94 280.827 1297.66 279.728C1291.07 282.475 1284.07 287.144 1276.65 293.736C1269.23 300.328 1261.82 308.019 1254.4 316.808C1246.99 325.323 1239.98 334.661 1233.39 344.824C1226.8 354.987 1220.89 365.149 1215.67 375.312C1210.46 385.475 1206.34 395.225 1203.31 404.564C1200.29 413.903 1198.78 422.143 1198.78 429.284C1198.78 443.017 1204.96 450.845 1217.32 452.768ZM1348.18 419.396C1348.18 416.924 1348.32 413.903 1348.59 410.332C1349.14 406.487 1349.97 401.543 1351.06 395.5C1352.16 389.183 1353.54 381.629 1355.18 372.84C1357.11 364.051 1359.44 353.476 1362.19 341.116C1362.74 338.369 1363.97 333.975 1365.9 327.932C1367.82 321.889 1370.29 315.572 1373.31 308.98C1376.61 302.113 1380.45 295.521 1384.85 289.204C1389.52 282.887 1395.01 278.217 1401.33 275.196C1406 276.295 1412.18 279.179 1419.87 283.848C1427.56 288.243 1434.15 294.423 1439.64 302.388C1433.33 309.529 1427.97 316.671 1423.58 323.812C1419.46 330.953 1415.61 338.369 1412.04 346.06C1408.74 353.751 1405.59 361.716 1402.56 369.956C1399.82 378.196 1396.66 386.848 1393.09 395.912C1390.07 403.603 1387.32 411.568 1384.85 419.808C1382.38 427.773 1381 434.777 1380.73 440.82C1380.73 445.764 1380.59 449.197 1380.32 451.12C1380.32 453.317 1379.63 454.416 1378.26 454.416C1377.16 454.416 1374.96 453.729 1371.66 452.356C1368.37 450.983 1364.94 448.923 1361.36 446.176C1358.07 443.155 1355.05 439.447 1352.3 435.052C1349.55 430.657 1348.18 425.439 1348.18 419.396ZM1426.87 240.588C1426.87 238.94 1427.28 236.468 1428.11 233.172C1426.74 231.799 1425.5 229.739 1424.4 226.992C1423.58 224.245 1423.16 221.773 1423.16 219.576C1423.16 217.104 1423.44 213.808 1423.99 209.688C1424.81 205.293 1425.77 200.624 1426.87 195.68C1427.97 190.736 1429.34 185.655 1430.99 180.436C1432.64 174.943 1434.29 169.999 1435.94 165.604C1439.23 165.604 1443.22 166.565 1447.88 168.488C1452.83 170.136 1457.77 172.471 1462.72 175.492C1467.66 178.239 1472.19 181.397 1476.31 184.968C1480.43 188.264 1483.59 191.423 1485.79 194.444C1482.77 197.465 1478.78 201.723 1473.84 207.216C1468.9 212.435 1464.09 218.065 1459.42 224.108C1454.75 229.876 1450.49 235.369 1446.65 240.588C1442.8 245.807 1440.33 249.515 1439.23 251.712C1435.94 251.163 1433.05 249.789 1430.58 247.592C1428.11 245.12 1426.87 242.785 1426.87 240.588ZM1511.88 247.18C1519.02 249.377 1525.75 254.321 1532.07 262.012C1538.39 269.428 1543.05 277.668 1546.08 286.732C1543.05 294.148 1538.39 303.075 1532.07 313.512C1525.75 323.949 1519.43 334.661 1513.12 345.648C1506.8 356.36 1501.03 366.66 1495.81 376.548C1490.87 386.161 1487.98 394.127 1487.16 400.444C1491.55 395.775 1496.36 390.419 1501.58 384.376C1507.07 378.059 1512.29 371.879 1517.24 365.836C1522.45 359.519 1527.26 353.888 1531.66 348.944C1536.05 343.725 1539.48 339.88 1541.96 337.408C1547.17 331.915 1553.35 325.597 1560.5 318.456C1567.64 311.04 1575.05 304.173 1582.74 297.856C1590.71 291.264 1598.67 285.771 1606.64 281.376C1614.61 276.707 1621.88 274.372 1628.48 274.372C1635.62 274.372 1641.52 276.844 1646.19 281.788C1651.14 286.457 1654.98 291.401 1657.73 296.62C1657.73 297.169 1656.63 297.993 1654.43 299.092C1652.51 299.916 1649.63 302.525 1645.78 306.92C1641.93 311.864 1637.54 318.731 1632.6 327.52C1627.93 336.035 1623.26 345.373 1618.59 355.536C1614.19 365.424 1610.49 375.587 1607.46 386.024C1604.44 396.461 1602.93 405.937 1602.93 414.452C1602.93 421.319 1603.76 425.713 1605.4 427.636C1607.33 429.559 1609.94 430.52 1613.23 430.52C1616.25 430.52 1619.41 429.833 1622.71 428.46C1626 427.087 1628.61 426.4 1630.54 426.4C1631.63 426.949 1632.46 428.185 1633.01 430.108C1633.83 431.756 1634.24 433.267 1634.24 434.64C1632.05 436.563 1629.44 438.485 1626.42 440.408C1623.39 442.331 1620.24 444.116 1616.94 445.764C1613.64 447.412 1610.35 448.785 1607.05 449.884C1604.03 450.983 1601.28 451.532 1598.81 451.532C1590.85 451.532 1584.25 450.296 1579.04 447.824C1574.09 445.627 1570.11 442.605 1567.09 438.76C1564.34 434.915 1562.42 430.383 1561.32 425.164C1560.22 419.671 1559.67 413.903 1559.67 407.86C1559.67 404.564 1559.95 400.856 1560.5 396.736C1561.05 392.616 1562.14 387.809 1563.79 382.316C1565.44 376.548 1567.77 369.819 1570.8 362.128C1573.82 354.163 1577.66 344.687 1582.33 333.7C1581.78 333.7 1578.07 335.623 1571.21 339.468C1564.34 343.313 1556.93 349.219 1548.96 357.184C1536.05 369.544 1524.38 381.767 1513.94 393.852C1503.78 405.937 1493.34 419.396 1482.63 434.228C1476.59 442.743 1471.23 449.884 1466.56 455.652C1462.17 461.695 1458.32 465.677 1455.02 467.6C1449.26 464.304 1445 459.635 1442.25 453.592C1439.51 447.824 1437.45 441.781 1436.07 435.464C1436.07 430.245 1436.76 423.653 1438.13 415.688C1439.78 407.723 1441.84 398.933 1444.31 389.32C1447.06 379.432 1450.35 369.132 1454.2 358.42C1458.05 347.708 1462.3 336.996 1466.97 326.284C1477.41 302.113 1486.89 283.161 1495.4 269.428C1504.19 255.695 1509.68 248.279 1511.88 247.18ZM1690.29 566.068C1683.43 563.321 1679.31 558.103 1677.93 550.412C1676.83 542.996 1672.16 536.953 1663.92 532.284C1666.12 518.276 1668.59 504.131 1671.34 489.848C1674.09 475.565 1677.52 459.36 1681.64 441.232C1686.03 422.829 1691.39 401.543 1697.71 377.372C1704.3 352.927 1712.54 323.4 1722.43 288.792C1713.36 288.792 1706.22 288.929 1701 289.204C1695.79 289.479 1690.7 290.028 1685.76 290.852C1684.66 289.753 1683.7 288.243 1682.88 286.32C1682.33 284.397 1682.05 282.612 1682.05 280.964C1684.8 279.865 1690.43 278.492 1698.94 276.844C1707.46 274.921 1716.8 273.273 1726.96 271.9C1733.55 251.025 1741.11 232.348 1749.62 215.868C1758.13 199.113 1767.34 184.831 1777.22 173.02C1787.11 161.209 1797.55 152.145 1808.54 145.828C1819.52 139.511 1830.65 136.352 1841.91 136.352C1845.2 136.352 1848.36 136.627 1851.38 137.176C1854.41 137.451 1856.74 137.588 1858.39 137.588C1860.86 135.665 1864.16 134.017 1868.28 132.644C1872.4 130.996 1875.97 130.172 1878.99 130.172C1882.28 130.172 1886.54 131.957 1891.76 135.528C1889.56 139.373 1887.23 144.592 1884.76 151.184C1882.28 157.776 1880.22 164.231 1878.58 170.548C1871.71 190.873 1864.43 204.057 1856.74 210.1C1853.72 210.1 1852.07 206.117 1851.8 198.152C1851.52 192.384 1850.7 186.753 1849.32 181.26C1848.23 178.788 1847.4 176.591 1846.85 174.668C1846.58 172.745 1846.44 170.273 1846.44 167.252C1846.44 165.604 1846.58 163.681 1846.85 161.484C1847.13 159.012 1847.68 155.029 1848.5 149.536C1843.83 149.536 1838.61 152.42 1832.84 158.188C1827.35 163.956 1821.45 172.196 1815.13 182.908C1809.09 193.345 1802.91 205.843 1796.59 220.4C1790.27 234.957 1784.23 251.025 1778.46 268.604L1813.07 267.368C1814.44 268.741 1815.54 271.9 1816.36 276.844C1817.46 281.513 1818.15 286.457 1818.42 291.676L1773.1 289.204C1762.67 320.241 1752.92 349.905 1743.85 378.196C1734.79 406.487 1726.69 432.58 1719.54 456.476C1712.4 480.372 1706.22 501.659 1701 520.336C1696.06 539.288 1692.49 554.532 1690.29 566.068ZM1855.46 461.42C1839.8 459.772 1827.31 452.905 1817.97 440.82C1808.63 428.735 1803.96 413.353 1803.96 394.676C1803.96 383.689 1805.61 372.291 1808.9 360.48C1812.2 348.669 1816.87 337.271 1822.91 326.284C1828.95 315.023 1836.09 304.448 1844.33 294.56C1852.57 284.672 1861.5 276.157 1871.11 269.016C1886.22 257.755 1900.37 252.124 1913.55 252.124C1922.34 256.793 1930.99 266.544 1939.51 281.376C1940.88 281.376 1942.12 281.376 1943.21 281.376C1944.31 281.101 1945.55 280.964 1946.92 280.964C1961.48 280.964 1968.76 293.873 1968.76 319.692C1968.76 336.996 1965.87 353.476 1960.11 369.132C1954.61 384.513 1946.79 398.521 1936.62 411.156C1926.73 423.791 1914.79 434.503 1900.78 443.292C1887.05 451.807 1871.94 457.849 1855.46 461.42ZM1876.47 331.64C1871.8 337.957 1867.41 344.824 1863.29 352.24C1859.17 359.656 1855.6 367.209 1852.57 374.9C1849.55 382.316 1847.22 389.595 1845.57 396.736C1843.92 403.603 1843.1 409.783 1843.1 415.276C1843.1 421.868 1844.2 428.185 1846.39 434.228C1848.59 440.271 1851.06 443.704 1853.81 444.528C1866.17 441.781 1877.43 436.7 1887.59 429.284C1898.03 421.593 1906.96 412.117 1914.37 400.856C1922.07 389.595 1927.97 376.823 1932.09 362.54C1936.49 348.257 1938.68 333.013 1938.68 316.808C1938.68 309.667 1938.27 304.036 1937.45 299.916C1936.62 295.796 1935.25 292.225 1933.33 289.204C1921.24 292.775 1910.39 298.543 1900.78 306.508C1891.44 314.473 1883.34 322.851 1876.47 331.64ZM1970.25 441.232C1970.25 436.837 1974.09 429.833 1981.79 420.22C1989.48 410.332 1999.64 399.208 2012.27 386.848C2025.18 374.213 2039.88 361.029 2056.36 347.296C2073.11 333.288 2090.42 319.829 2108.27 306.92C2096.73 304.448 2087.53 302.663 2080.67 301.564C2074.07 300.465 2068.72 299.916 2064.6 299.916C2056.63 299.916 2049.49 301.015 2043.17 303.212C2036.86 305.409 2030.68 308.98 2024.63 313.924C2012 302.937 2005.68 290.303 2005.68 276.02C2005.68 271.625 2005.82 269.016 2006.09 268.192C2010.76 263.523 2016.26 259.952 2022.57 257.48C2029.17 255.008 2036.03 253.772 2043.17 253.772C2050.86 253.772 2058.69 255.008 2066.66 257.48C2074.62 259.952 2082.45 262.699 2090.14 265.72C2097.83 268.467 2104.97 271.076 2111.57 273.548C2118.43 276.02 2124.47 277.256 2129.69 277.256C2132.71 277.256 2136.01 276.844 2139.58 276.02C2143.43 275.196 2146.59 274.097 2149.06 272.724C2151.53 274.647 2153.73 278.492 2155.65 284.26C2157.85 290.028 2158.95 295.659 2158.95 301.152C2150.43 304.448 2140.13 310.216 2128.05 318.456C2116.23 326.696 2104.15 336.172 2091.79 346.884C2079.43 357.596 2067.34 368.995 2055.53 381.08C2044 393.165 2034.38 404.564 2026.69 415.276C2032.46 417.748 2040.29 418.984 2050.18 418.984C2056.49 418.984 2062.95 418.435 2069.54 417.336C2076.13 416.237 2082.45 414.727 2088.49 412.804C2094.81 410.881 2100.58 408.684 2105.8 406.212C2111.02 403.465 2115.41 400.581 2118.98 397.56C2131.89 405.8 2138.35 417.885 2138.35 433.816C2138.35 436.013 2138.21 437.799 2137.93 439.172C2137.93 440.545 2137.8 442.193 2137.52 444.116C2124.89 452.081 2111.15 456.064 2096.32 456.064C2088.91 456.064 2081.49 455.24 2074.07 453.592C2066.66 452.219 2059.38 450.708 2052.24 449.06C2045.37 447.412 2038.78 445.901 2032.46 444.528C2026.42 442.88 2020.79 442.056 2015.57 442.056C2002.39 442.056 1991.67 448.236 1983.43 460.596C1979.86 459.223 1976.84 456.751 1974.37 453.18C1972.17 449.609 1970.8 445.627 1970.25 441.232Z" fill="#1F2937"/>
</svg>
